<mxfile host="Electron" modified="2024-11-23T09:04:55.263Z" agent="Mozilla/5.0 (Windows NT 10.0; Win64; x64) AppleWebKit/537.36 (KHTML, like Gecko) draw.io/24.6.4 Chrome/124.0.6367.207 Electron/30.0.6 Safari/537.36" etag="76tXk_LuQyQdWMKEsLR1" version="24.6.4" type="device">
  <diagram name="Страница — 1" id="jGSl58Aa2uZ6jmHS-f9l">
    <mxGraphModel dx="2261" dy="844" grid="1" gridSize="10" guides="1" tooltips="1" connect="1" arrows="1" fold="1" page="1" pageScale="1" pageWidth="827" pageHeight="1169" math="0" shadow="0">
      <root>
        <mxCell id="0" />
        <mxCell id="1" parent="0" />
        <mxCell id="7aOsmfhAsm_7IRCYL5V3-14" value="" style="edgeStyle=orthogonalEdgeStyle;rounded=0;orthogonalLoop=1;jettySize=auto;html=1;" edge="1" parent="1" source="7aOsmfhAsm_7IRCYL5V3-1" target="7aOsmfhAsm_7IRCYL5V3-2">
          <mxGeometry relative="1" as="geometry" />
        </mxCell>
        <mxCell id="7aOsmfhAsm_7IRCYL5V3-1" value="start" style="ellipse;whiteSpace=wrap;html=1;" vertex="1" parent="1">
          <mxGeometry x="120" y="10" width="120" height="80" as="geometry" />
        </mxCell>
        <mxCell id="7aOsmfhAsm_7IRCYL5V3-15" value="" style="edgeStyle=orthogonalEdgeStyle;rounded=0;orthogonalLoop=1;jettySize=auto;html=1;" edge="1" parent="1" source="7aOsmfhAsm_7IRCYL5V3-2" target="7aOsmfhAsm_7IRCYL5V3-3">
          <mxGeometry relative="1" as="geometry" />
        </mxCell>
        <mxCell id="7aOsmfhAsm_7IRCYL5V3-2" value="функция ввода размера строкового массива(ArraySIze) и самого массива: imput String[arraySize]" style="rounded=1;whiteSpace=wrap;html=1;" vertex="1" parent="1">
          <mxGeometry x="115" y="120" width="130" height="80" as="geometry" />
        </mxCell>
        <mxCell id="7aOsmfhAsm_7IRCYL5V3-16" value="" style="edgeStyle=orthogonalEdgeStyle;rounded=0;orthogonalLoop=1;jettySize=auto;html=1;" edge="1" parent="1" source="7aOsmfhAsm_7IRCYL5V3-3" target="7aOsmfhAsm_7IRCYL5V3-4">
          <mxGeometry relative="1" as="geometry" />
        </mxCell>
        <mxCell id="7aOsmfhAsm_7IRCYL5V3-3" value="suitableCount = 0" style="rounded=0;whiteSpace=wrap;html=1;" vertex="1" parent="1">
          <mxGeometry x="120" y="240" width="120" height="60" as="geometry" />
        </mxCell>
        <mxCell id="7aOsmfhAsm_7IRCYL5V3-19" value="" style="edgeStyle=orthogonalEdgeStyle;rounded=0;orthogonalLoop=1;jettySize=auto;html=1;" edge="1" parent="1" source="7aOsmfhAsm_7IRCYL5V3-4" target="7aOsmfhAsm_7IRCYL5V3-5">
          <mxGeometry relative="1" as="geometry" />
        </mxCell>
        <mxCell id="7aOsmfhAsm_7IRCYL5V3-47" value="" style="edgeStyle=orthogonalEdgeStyle;rounded=0;orthogonalLoop=1;jettySize=auto;html=1;" edge="1" parent="1" source="7aOsmfhAsm_7IRCYL5V3-4" target="7aOsmfhAsm_7IRCYL5V3-36">
          <mxGeometry relative="1" as="geometry" />
        </mxCell>
        <mxCell id="7aOsmfhAsm_7IRCYL5V3-4" value="(цикл foreachj) sit in inputStrings" style="rhombus;whiteSpace=wrap;html=1;" vertex="1" parent="1">
          <mxGeometry x="45" y="350" width="270" height="80" as="geometry" />
        </mxCell>
        <mxCell id="7aOsmfhAsm_7IRCYL5V3-20" value="" style="edgeStyle=orthogonalEdgeStyle;rounded=0;orthogonalLoop=1;jettySize=auto;html=1;" edge="1" parent="1" source="7aOsmfhAsm_7IRCYL5V3-5" target="7aOsmfhAsm_7IRCYL5V3-6">
          <mxGeometry relative="1" as="geometry" />
        </mxCell>
        <mxCell id="7aOsmfhAsm_7IRCYL5V3-5" value="str.Length &amp;lt;= 3" style="rhombus;whiteSpace=wrap;html=1;" vertex="1" parent="1">
          <mxGeometry x="40" y="470" width="280" height="80" as="geometry" />
        </mxCell>
        <mxCell id="7aOsmfhAsm_7IRCYL5V3-6" value="suitableCount ++" style="rounded=0;whiteSpace=wrap;html=1;" vertex="1" parent="1">
          <mxGeometry x="117.5" y="630" width="125" height="60" as="geometry" />
        </mxCell>
        <mxCell id="7aOsmfhAsm_7IRCYL5V3-21" value="длинна не более 3 символов&lt;div&gt;&lt;br&gt;&lt;/div&gt;" style="text;html=1;align=center;verticalAlign=middle;resizable=0;points=[];autosize=1;strokeColor=none;fillColor=none;" vertex="1" parent="1">
          <mxGeometry x="80" y="710" width="180" height="40" as="geometry" />
        </mxCell>
        <mxCell id="7aOsmfhAsm_7IRCYL5V3-22" value="yes" style="text;html=1;align=center;verticalAlign=middle;whiteSpace=wrap;rounded=0;" vertex="1" parent="1">
          <mxGeometry x="190" y="430" width="60" height="30" as="geometry" />
        </mxCell>
        <mxCell id="7aOsmfhAsm_7IRCYL5V3-24" value="yes" style="text;html=1;align=center;verticalAlign=middle;whiteSpace=wrap;rounded=0;" vertex="1" parent="1">
          <mxGeometry x="185" y="570" width="60" height="30" as="geometry" />
        </mxCell>
        <mxCell id="7aOsmfhAsm_7IRCYL5V3-25" value="" style="endArrow=none;html=1;rounded=0;exitX=0;exitY=0.5;exitDx=0;exitDy=0;" edge="1" parent="1" source="7aOsmfhAsm_7IRCYL5V3-6">
          <mxGeometry width="50" height="50" relative="1" as="geometry">
            <mxPoint x="140" y="360" as="sourcePoint" />
            <mxPoint y="660" as="targetPoint" />
          </mxGeometry>
        </mxCell>
        <mxCell id="7aOsmfhAsm_7IRCYL5V3-29" value="" style="endArrow=classic;html=1;rounded=0;exitX=0;exitY=0.5;exitDx=0;exitDy=0;" edge="1" parent="1" source="7aOsmfhAsm_7IRCYL5V3-5">
          <mxGeometry width="50" height="50" relative="1" as="geometry">
            <mxPoint x="140" y="360" as="sourcePoint" />
            <mxPoint y="510" as="targetPoint" />
          </mxGeometry>
        </mxCell>
        <mxCell id="7aOsmfhAsm_7IRCYL5V3-30" value="" style="endArrow=none;html=1;rounded=0;" edge="1" parent="1">
          <mxGeometry width="50" height="50" relative="1" as="geometry">
            <mxPoint y="660" as="sourcePoint" />
            <mxPoint y="390" as="targetPoint" />
          </mxGeometry>
        </mxCell>
        <mxCell id="7aOsmfhAsm_7IRCYL5V3-31" value="" style="endArrow=classic;html=1;rounded=0;" edge="1" parent="1" target="7aOsmfhAsm_7IRCYL5V3-4">
          <mxGeometry width="50" height="50" relative="1" as="geometry">
            <mxPoint y="390" as="sourcePoint" />
            <mxPoint x="440" y="310" as="targetPoint" />
          </mxGeometry>
        </mxCell>
        <mxCell id="7aOsmfhAsm_7IRCYL5V3-32" value="no" style="text;html=1;align=center;verticalAlign=middle;whiteSpace=wrap;rounded=0;" vertex="1" parent="1">
          <mxGeometry y="480" width="60" height="30" as="geometry" />
        </mxCell>
        <mxCell id="7aOsmfhAsm_7IRCYL5V3-34" value="no" style="text;html=1;align=center;verticalAlign=middle;whiteSpace=wrap;rounded=0;" vertex="1" parent="1">
          <mxGeometry x="330" y="350" width="60" height="30" as="geometry" />
        </mxCell>
        <mxCell id="7aOsmfhAsm_7IRCYL5V3-46" value="" style="edgeStyle=orthogonalEdgeStyle;rounded=0;orthogonalLoop=1;jettySize=auto;html=1;" edge="1" parent="1" source="7aOsmfhAsm_7IRCYL5V3-36" target="7aOsmfhAsm_7IRCYL5V3-37">
          <mxGeometry relative="1" as="geometry" />
        </mxCell>
        <mxCell id="7aOsmfhAsm_7IRCYL5V3-36" value="выделение памяти под новый массив suitebleStrings[suitableCount]; ввод переменной счетчика index=0" style="rounded=0;whiteSpace=wrap;html=1;" vertex="1" parent="1">
          <mxGeometry x="400" y="360" width="220" height="60" as="geometry" />
        </mxCell>
        <mxCell id="7aOsmfhAsm_7IRCYL5V3-44" value="" style="edgeStyle=orthogonalEdgeStyle;rounded=0;orthogonalLoop=1;jettySize=auto;html=1;" edge="1" parent="1" source="7aOsmfhAsm_7IRCYL5V3-37" target="7aOsmfhAsm_7IRCYL5V3-40">
          <mxGeometry relative="1" as="geometry" />
        </mxCell>
        <mxCell id="7aOsmfhAsm_7IRCYL5V3-37" value="(Цикл Foreach) str in inputStrings" style="rhombus;whiteSpace=wrap;html=1;" vertex="1" parent="1">
          <mxGeometry x="400" y="470" width="220" height="80" as="geometry" />
        </mxCell>
        <mxCell id="7aOsmfhAsm_7IRCYL5V3-38" value="no" style="text;html=1;align=center;verticalAlign=middle;whiteSpace=wrap;rounded=0;" vertex="1" parent="1">
          <mxGeometry x="600" y="480" width="60" height="30" as="geometry" />
        </mxCell>
        <mxCell id="7aOsmfhAsm_7IRCYL5V3-39" value="yes" style="text;html=1;align=center;verticalAlign=middle;whiteSpace=wrap;rounded=0;" vertex="1" parent="1">
          <mxGeometry x="530" y="540" width="60" height="30" as="geometry" />
        </mxCell>
        <mxCell id="7aOsmfhAsm_7IRCYL5V3-45" value="" style="edgeStyle=orthogonalEdgeStyle;rounded=0;orthogonalLoop=1;jettySize=auto;html=1;" edge="1" parent="1" source="7aOsmfhAsm_7IRCYL5V3-40" target="7aOsmfhAsm_7IRCYL5V3-43">
          <mxGeometry relative="1" as="geometry" />
        </mxCell>
        <mxCell id="7aOsmfhAsm_7IRCYL5V3-40" value="str.Length &amp;lt;=3" style="rhombus;whiteSpace=wrap;html=1;" vertex="1" parent="1">
          <mxGeometry x="400" y="610" width="220" height="80" as="geometry" />
        </mxCell>
        <mxCell id="7aOsmfhAsm_7IRCYL5V3-41" value="no" style="text;html=1;align=center;verticalAlign=middle;whiteSpace=wrap;rounded=0;" vertex="1" parent="1">
          <mxGeometry x="380" y="620" width="60" height="30" as="geometry" />
        </mxCell>
        <mxCell id="7aOsmfhAsm_7IRCYL5V3-42" value="yes" style="text;html=1;align=center;verticalAlign=middle;whiteSpace=wrap;rounded=0;" vertex="1" parent="1">
          <mxGeometry x="540" y="690" width="60" height="30" as="geometry" />
        </mxCell>
        <mxCell id="7aOsmfhAsm_7IRCYL5V3-49" value="" style="edgeStyle=orthogonalEdgeStyle;rounded=0;orthogonalLoop=1;jettySize=auto;html=1;" edge="1" parent="1" source="7aOsmfhAsm_7IRCYL5V3-43" target="7aOsmfhAsm_7IRCYL5V3-48">
          <mxGeometry relative="1" as="geometry" />
        </mxCell>
        <mxCell id="7aOsmfhAsm_7IRCYL5V3-43" value="suitableStrings[index] =str;&lt;div&gt;index++;&lt;/div&gt;" style="rounded=0;whiteSpace=wrap;html=1;" vertex="1" parent="1">
          <mxGeometry x="420" y="730" width="180" height="60" as="geometry" />
        </mxCell>
        <mxCell id="7aOsmfhAsm_7IRCYL5V3-51" value="" style="edgeStyle=orthogonalEdgeStyle;rounded=0;orthogonalLoop=1;jettySize=auto;html=1;" edge="1" parent="1" source="7aOsmfhAsm_7IRCYL5V3-48" target="7aOsmfhAsm_7IRCYL5V3-50">
          <mxGeometry relative="1" as="geometry" />
        </mxCell>
        <mxCell id="7aOsmfhAsm_7IRCYL5V3-48" value="функция вывода&amp;nbsp;&lt;div&gt;imputStrings[]&lt;/div&gt;&lt;div&gt;suiyableStrings[]&lt;/div&gt;" style="shape=document;whiteSpace=wrap;html=1;boundedLbl=1;" vertex="1" parent="1">
          <mxGeometry x="450" y="820" width="120" height="80" as="geometry" />
        </mxCell>
        <mxCell id="7aOsmfhAsm_7IRCYL5V3-50" value="end" style="ellipse;whiteSpace=wrap;html=1;" vertex="1" parent="1">
          <mxGeometry x="450" y="940" width="120" height="80" as="geometry" />
        </mxCell>
      </root>
    </mxGraphModel>
  </diagram>
</mxfile>
